# xmcd
# Track frame offsets:
# 182
# 14445
# 28260
# 44645
# 61952
# 78737
# 94190
# 108120
# 119355
# 132227
# 145290
# 158572
# 171477
# 185327
# 196962
# 210170
#
# Disc length: 2979 seconds
# Revision: 1
# Processed by: cddbd v1.4PL0 Copyright (c) Steve Scherf et al.
# Submitted via: VisiTrax 2.9.6.190 - For more info visit www.synapsa.com
#
DISCID=df0ba110
DTITLE=Leroy Carr - Southbound Blues
DYEAR=2000
DGENRE=Blues
TTITLE0=Midnight Blues Hour Blues
TTITLE1=Mean Mistreater Mama
TTITLE2=Hurry Down Sunshine
TTITLE3=Corn Likker Blues
TTITLE4=Shady Lane Blues
TTITLE5=Blues Before Sunrise
TTITLE6=Take Around The Corner
TTITLE7=My Woman's Gone Wrong
TTITLE8=Southbound Blues
TTITLE9=Barrelhouse Women
TTITLE10=I Believe I'll Make A Change
TTITLE11=Bobo Stomp
TTITLE12=Big Four Blues
TTITLE13=Hustler's Blues
TTITLE14=Shining Pistol
TTITLE15=It's Too Short
EXTD=CD Drive, 3215
EXTT0=
EXTT1=
EXTT2=
EXTT3=
EXTT4=
EXTT5=
EXTT6=
EXTT7=
EXTT8=
EXTT9=
EXTT10=
EXTT11=
EXTT12=
EXTT13=
EXTT14=
EXTT15=
PLAYORDER=
